<?xml version="1.0" encoding="UTF-8" standalone="no"?>
<!DOCTYPE svg PUBLIC "-//W3C//DTD SVG 1.1//EN"
 "http://www.w3.org/Graphics/SVG/1.1/DTD/svg11.dtd">
<!-- Generated by graphviz version 2.44.1 (20200629.0846)
 -->
<!-- Pages: 1 -->
<svg width="130pt" height="130pt"
 viewBox="0.00 0.00 129.94 130.01" xmlns="http://www.w3.org/2000/svg" xmlns:xlink="http://www.w3.org/1999/xlink">
<g id="graph0" class="graph" transform="scale(1 1) rotate(0) translate(4 126.01)">
<polygon fill="white" stroke="transparent" points="-4,4 -4,-126.01 125.94,-126.01 125.94,4 -4,4"/>
<!-- n1 -->
<g id="node1" class="node">
<title>n1</title>
<ellipse fill="none" stroke="black" cx="18" cy="-54.63" rx="18" ry="18"/>
<text text-anchor="middle" x="18" y="-52.13" font-family="Times,serif" font-size="10.00">n1</text>
</g>
<!-- n2 -->
<g id="node2" class="node">
<title>n2</title>
<ellipse fill="none" stroke="black" cx="103.94" cy="-67.35" rx="18" ry="18"/>
<text text-anchor="middle" x="103.94" y="-64.85" font-family="Times,serif" font-size="10.00">n2</text>
</g>
<!-- n1&#45;&#45;n2 -->
<g id="edge1" class="edge">
<title>n1&#45;&#45;n2</title>
<path fill="none" stroke="black" d="M35.81,-57.27C50.46,-59.44 71.13,-62.5 85.86,-64.68"/>
</g>
<!-- n3 -->
<g id="node3" class="node">
<title>n3</title>
<ellipse fill="none" stroke="black" cx="67.29" cy="-18" rx="18" ry="18"/>
<text text-anchor="middle" x="67.29" y="-15.5" font-family="Times,serif" font-size="10.00">n3</text>
</g>
<!-- n1&#45;&#45;n3 -->
<g id="edge6" class="edge">
<title>n1&#45;&#45;n3</title>
<path fill="none" stroke="black" d="M32.52,-43.84C38.88,-39.11 46.33,-33.57 52.7,-28.84"/>
</g>
<!-- n2&#45;&#45;n3 -->
<g id="edge2" class="edge">
<title>n2&#45;&#45;n3</title>
<path fill="none" stroke="black" d="M93.14,-52.81C88.41,-46.44 82.87,-38.98 78.14,-32.61"/>
</g>
<!-- n4 -->
<g id="node4" class="node">
<title>n4</title>
<ellipse fill="none" stroke="black" cx="54.56" cy="-104.01" rx="18" ry="18"/>
<text text-anchor="middle" x="54.56" y="-101.51" font-family="Times,serif" font-size="10.00">n4</text>
</g>
<!-- n2&#45;&#45;n4 -->
<g id="edge5" class="edge">
<title>n2&#45;&#45;n4</title>
<path fill="none" stroke="black" d="M89.39,-78.15C83.01,-82.88 75.55,-88.43 69.17,-93.16"/>
</g>
<!-- n3&#45;&#45;n4 -->
<g id="edge3" class="edge">
<title>n3&#45;&#45;n4</title>
<path fill="none" stroke="black" d="M64.65,-35.82C62.48,-50.49 59.42,-71.18 57.23,-85.92"/>
</g>
<!-- n4&#45;&#45;n1 -->
<g id="edge4" class="edge">
<title>n4&#45;&#45;n1</title>
<path fill="none" stroke="black" d="M43.79,-89.46C39.07,-83.09 33.54,-75.63 28.82,-69.25"/>
</g>
</g>
</svg>
