<?xml version="1.0" encoding="UTF-8" standalone="no"?>
<!DOCTYPE svg PUBLIC "-//W3C//DTD SVG 1.1//EN"
 "http://www.w3.org/Graphics/SVG/1.1/DTD/svg11.dtd">
<!-- Generated by graphviz version 2.44.1 (20200629.0846)
 -->
<!-- Pages: 1 -->
<svg width="303pt" height="267pt"
 viewBox="0.00 0.00 302.69 266.77" xmlns="http://www.w3.org/2000/svg" xmlns:xlink="http://www.w3.org/1999/xlink">
<g id="graph0" class="graph" transform="scale(1 1) rotate(0) translate(4 262.77)">
<polygon fill="white" stroke="transparent" points="-4,4 -4,-262.77 298.69,-262.77 298.69,4 -4,4"/>
<!-- h1.n1.net -->
<g id="node1" class="node">
<title>h1.n1.net</title>
<ellipse fill="none" stroke="black" cx="32.38" cy="-69.01" rx="32.25" ry="32.25"/>
<text text-anchor="middle" x="32.38" y="-66.51" font-family="Times,serif" font-size="10.00">h1.n1.net</text>
</g>
<!-- h2.n1.net -->
<g id="node2" class="node">
<title>h2.n1.net</title>
<ellipse fill="none" stroke="black" cx="118.31" cy="-81.73" rx="32.25" ry="32.25"/>
<text text-anchor="middle" x="118.31" y="-79.23" font-family="Times,serif" font-size="10.00">h2.n1.net</text>
</g>
<!-- h1.n1.net&#45;&#45;h2.n1.net -->
<g id="edge1" class="edge">
<title>h1.n1.net&#45;&#45;h2.n1.net</title>
<path fill="none" stroke="black" d="M64.87,-73.82C71.8,-74.84 79.13,-75.93 86.06,-76.96"/>
</g>
<!-- h3.n1.net -->
<g id="node3" class="node">
<title>h3.n1.net</title>
<ellipse fill="none" stroke="black" cx="81.67" cy="-32.38" rx="32.25" ry="32.25"/>
<text text-anchor="middle" x="81.67" y="-29.88" font-family="Times,serif" font-size="10.00">h3.n1.net</text>
</g>
<!-- h1.n1.net&#45;&#45;h3.n1.net -->
<g id="edge5" class="edge">
<title>h1.n1.net&#45;&#45;h3.n1.net</title>
<path fill="none" stroke="black" d="M58.47,-49.62C58.56,-49.55 58.65,-49.48 58.74,-49.41"/>
</g>
<!-- h2.n1.net&#45;&#45;h3.n1.net -->
<g id="edge2" class="edge">
<title>h2.n1.net&#45;&#45;h3.n1.net</title>
<path fill="none" stroke="black" d="M98.92,-55.61C98.85,-55.52 98.78,-55.42 98.71,-55.33"/>
</g>
<!-- h4.n1.net -->
<g id="node4" class="node">
<title>h4.n1.net</title>
<ellipse fill="none" stroke="black" cx="68.93" cy="-118.39" rx="32.25" ry="32.25"/>
<text text-anchor="middle" x="68.93" y="-115.89" font-family="Times,serif" font-size="10.00">h4.n1.net</text>
</g>
<!-- h2.n1.net&#45;&#45;h4.n1.net -->
<g id="edge6" class="edge">
<title>h2.n1.net&#45;&#45;h4.n1.net</title>
<path fill="none" stroke="black" d="M92.18,-101.13C92.08,-101.2 91.99,-101.27 91.9,-101.34"/>
</g>
<!-- h3.n1.net&#45;&#45;h4.n1.net -->
<g id="edge3" class="edge">
<title>h3.n1.net&#45;&#45;h4.n1.net</title>
<path fill="none" stroke="black" d="M76.93,-64.4C75.86,-71.57 74.74,-79.17 73.68,-86.33"/>
</g>
<!-- h4.n1.net&#45;&#45;h1.n1.net -->
<g id="edge4" class="edge">
<title>h4.n1.net&#45;&#45;h1.n1.net</title>
<path fill="none" stroke="black" d="M49.58,-92.25C49.52,-92.16 49.45,-92.07 49.38,-91.98"/>
</g>
<!-- h1.n2.net -->
<g id="node5" class="node">
<title>h1.n2.net</title>
<ellipse fill="none" stroke="black" cx="176.38" cy="-177.01" rx="32.25" ry="32.25"/>
<text text-anchor="middle" x="176.38" y="-174.51" font-family="Times,serif" font-size="10.00">h1.n2.net</text>
</g>
<!-- h2.n2.net -->
<g id="node6" class="node">
<title>h2.n2.net</title>
<ellipse fill="none" stroke="black" cx="262.31" cy="-189.73" rx="32.25" ry="32.25"/>
<text text-anchor="middle" x="262.31" y="-187.23" font-family="Times,serif" font-size="10.00">h2.n2.net</text>
</g>
<!-- h1.n2.net&#45;&#45;h2.n2.net -->
<g id="edge7" class="edge">
<title>h1.n2.net&#45;&#45;h2.n2.net</title>
<path fill="none" stroke="black" d="M208.87,-181.82C215.8,-182.84 223.13,-183.93 230.06,-184.96"/>
</g>
<!-- h3.n2.net -->
<g id="node7" class="node">
<title>h3.n2.net</title>
<ellipse fill="none" stroke="black" cx="225.67" cy="-140.38" rx="32.25" ry="32.25"/>
<text text-anchor="middle" x="225.67" y="-137.88" font-family="Times,serif" font-size="10.00">h3.n2.net</text>
</g>
<!-- h1.n2.net&#45;&#45;h3.n2.net -->
<g id="edge11" class="edge">
<title>h1.n2.net&#45;&#45;h3.n2.net</title>
<path fill="none" stroke="black" d="M202.47,-157.62C202.56,-157.55 202.65,-157.48 202.74,-157.41"/>
</g>
<!-- h2.n2.net&#45;&#45;h3.n2.net -->
<g id="edge8" class="edge">
<title>h2.n2.net&#45;&#45;h3.n2.net</title>
<path fill="none" stroke="black" d="M242.92,-163.61C242.85,-163.52 242.78,-163.42 242.71,-163.33"/>
</g>
<!-- h4.n2.net -->
<g id="node8" class="node">
<title>h4.n2.net</title>
<ellipse fill="none" stroke="black" cx="212.93" cy="-226.39" rx="32.25" ry="32.25"/>
<text text-anchor="middle" x="212.93" y="-223.89" font-family="Times,serif" font-size="10.00">h4.n2.net</text>
</g>
<!-- h2.n2.net&#45;&#45;h4.n2.net -->
<g id="edge12" class="edge">
<title>h2.n2.net&#45;&#45;h4.n2.net</title>
<path fill="none" stroke="black" d="M236.18,-209.13C236.08,-209.2 235.99,-209.27 235.9,-209.34"/>
</g>
<!-- h3.n2.net&#45;&#45;h4.n2.net -->
<g id="edge9" class="edge">
<title>h3.n2.net&#45;&#45;h4.n2.net</title>
<path fill="none" stroke="black" d="M220.93,-172.4C219.86,-179.57 218.74,-187.17 217.68,-194.33"/>
</g>
<!-- h4.n2.net&#45;&#45;h1.n2.net -->
<g id="edge10" class="edge">
<title>h4.n2.net&#45;&#45;h1.n2.net</title>
<path fill="none" stroke="black" d="M193.58,-200.25C193.52,-200.16 193.45,-200.07 193.38,-199.98"/>
</g>
</g>
</svg>
