<?xml version="1.0" encoding="UTF-8" standalone="no"?>
<!DOCTYPE svg PUBLIC "-//W3C//DTD SVG 1.1//EN"
 "http://www.w3.org/Graphics/SVG/1.1/DTD/svg11.dtd">
<!-- Generated by graphviz version 2.44.1 (20200629.0846)
 -->
<!-- Pages: 1 -->
<svg width="303pt" height="305pt"
 viewBox="0.00 0.00 303.40 305.14" xmlns="http://www.w3.org/2000/svg" xmlns:xlink="http://www.w3.org/1999/xlink">
<g id="graph0" class="graph" transform="scale(1 1) rotate(0) translate(4 301.14)">
<polygon fill="white" stroke="transparent" points="-4,4 -4,-301.14 299.4,-301.14 299.4,4 -4,4"/>
<!-- h1.n1.net -->
<g id="node1" class="node">
<title>h1.n1.net</title>
<ellipse fill="none" stroke="black" cx="116.43" cy="-183.05" rx="32.25" ry="32.25"/>
<text text-anchor="middle" x="116.43" y="-180.55" font-family="Times,serif" font-size="10.00">h1.n1.net</text>
</g>
<!-- h2.n1.net -->
<g id="node2" class="node">
<title>h2.n1.net</title>
<ellipse fill="none" stroke="black" cx="135.22" cy="-254.2" rx="32.25" ry="32.25"/>
<text text-anchor="middle" x="135.22" y="-251.7" font-family="Times,serif" font-size="10.00">h2.n1.net</text>
</g>
<!-- h1.n1.net&#45;&#45;h2.n1.net -->
<g id="edge1" class="edge">
<title>h1.n1.net&#45;&#45;h2.n1.net</title>
<path fill="none" stroke="black" d="M124.72,-214.46C125.43,-217.14 126.15,-219.86 126.86,-222.54"/>
</g>
<!-- h3.n1.net -->
<g id="node3" class="node">
<title>h3.n1.net</title>
<ellipse fill="none" stroke="black" cx="87.08" cy="-264.77" rx="32.25" ry="32.25"/>
<text text-anchor="middle" x="87.08" y="-262.27" font-family="Times,serif" font-size="10.00">h3.n1.net</text>
</g>
<!-- h1.n1.net&#45;&#45;h3.n1.net -->
<g id="edge5" class="edge">
<title>h1.n1.net&#45;&#45;h3.n1.net</title>
<path fill="none" stroke="black" d="M105.33,-213.95C102.96,-220.54 100.46,-227.51 98.09,-234.1"/>
</g>
<!-- h1.n3.net -->
<g id="node9" class="node">
<title>h1.n3.net</title>
<ellipse fill="none" stroke="black" cx="102.97" cy="-105.45" rx="32.25" ry="32.25"/>
<text text-anchor="middle" x="102.97" y="-102.95" font-family="Times,serif" font-size="10.00">h1.n3.net</text>
</g>
<!-- h1.n1.net&#45;&#45;h1.n3.net -->
<g id="edge21" class="edge">
<title>h1.n1.net&#45;&#45;h1.n3.net</title>
<path fill="none" stroke="black" d="M110.87,-151.04C110.09,-146.53 109.29,-141.9 108.51,-137.39"/>
</g>
<!-- h2.n1.net&#45;&#45;h3.n1.net -->
<g id="edge2" class="edge">
<title>h2.n1.net&#45;&#45;h3.n1.net</title>
<path fill="none" stroke="black" d="M103.38,-261.19C103.24,-261.22 103.1,-261.25 102.96,-261.28"/>
</g>
<!-- h4.n1.net -->
<g id="node4" class="node">
<title>h4.n1.net</title>
<ellipse fill="none" stroke="black" cx="56.55" cy="-225.9" rx="32.25" ry="32.25"/>
<text text-anchor="middle" x="56.55" y="-223.4" font-family="Times,serif" font-size="10.00">h4.n1.net</text>
</g>
<!-- h2.n1.net&#45;&#45;h4.n1.net -->
<g id="edge6" class="edge">
<title>h2.n1.net&#45;&#45;h4.n1.net</title>
<path fill="none" stroke="black" d="M104.58,-243.18C98.89,-241.13 92.94,-238.99 87.24,-236.94"/>
</g>
<!-- h3.n1.net&#45;&#45;h4.n1.net -->
<g id="edge3" class="edge">
<title>h3.n1.net&#45;&#45;h4.n1.net</title>
<path fill="none" stroke="black" d="M66.89,-239.06C66.8,-238.95 66.71,-238.83 66.62,-238.72"/>
</g>
<!-- h4.n1.net&#45;&#45;h1.n1.net -->
<g id="edge4" class="edge">
<title>h4.n1.net&#45;&#45;h1.n1.net</title>
<path fill="none" stroke="black" d="M82.99,-206.98C85.25,-205.37 87.53,-203.74 89.78,-202.12"/>
</g>
<!-- h1.n2.net -->
<g id="node5" class="node">
<title>h1.n2.net</title>
<ellipse fill="none" stroke="black" cx="177.05" cy="-132.54" rx="32.25" ry="32.25"/>
<text text-anchor="middle" x="177.05" y="-130.04" font-family="Times,serif" font-size="10.00">h1.n2.net</text>
</g>
<!-- h1.n2.net&#45;&#45;h1.n1.net -->
<g id="edge20" class="edge">
<title>h1.n2.net&#45;&#45;h1.n1.net</title>
<path fill="none" stroke="black" d="M152.04,-153.38C148.52,-156.31 144.9,-159.33 141.38,-162.26"/>
</g>
<!-- h2.n2.net -->
<g id="node6" class="node">
<title>h2.n2.net</title>
<ellipse fill="none" stroke="black" cx="243.68" cy="-163.2" rx="32.25" ry="32.25"/>
<text text-anchor="middle" x="243.68" y="-160.7" font-family="Times,serif" font-size="10.00">h2.n2.net</text>
</g>
<!-- h1.n2.net&#45;&#45;h2.n2.net -->
<g id="edge7" class="edge">
<title>h1.n2.net&#45;&#45;h2.n2.net</title>
<path fill="none" stroke="black" d="M206.47,-146.07C208.98,-147.23 211.52,-148.4 214.03,-149.55"/>
</g>
<!-- h3.n2.net -->
<g id="node7" class="node">
<title>h3.n2.net</title>
<ellipse fill="none" stroke="black" cx="229.46" cy="-81.17" rx="32.25" ry="32.25"/>
<text text-anchor="middle" x="229.46" y="-78.67" font-family="Times,serif" font-size="10.00">h3.n2.net</text>
</g>
<!-- h1.n2.net&#45;&#45;h3.n2.net -->
<g id="edge11" class="edge">
<title>h1.n2.net&#45;&#45;h3.n2.net</title>
<path fill="none" stroke="black" d="M200.19,-109.86C202.16,-107.92 204.16,-105.97 206.14,-104.03"/>
</g>
<!-- h2.n2.net&#45;&#45;h3.n2.net -->
<g id="edge8" class="edge">
<title>h2.n2.net&#45;&#45;h3.n2.net</title>
<path fill="none" stroke="black" d="M238.14,-131.25C237.11,-125.31 236.04,-119.11 235.01,-113.17"/>
</g>
<!-- h4.n2.net -->
<g id="node8" class="node">
<title>h4.n2.net</title>
<ellipse fill="none" stroke="black" cx="263.02" cy="-117.61" rx="32.25" ry="32.25"/>
<text text-anchor="middle" x="263.02" y="-115.11" font-family="Times,serif" font-size="10.00">h4.n2.net</text>
</g>
<!-- h2.n2.net&#45;&#45;h4.n2.net -->
<g id="edge12" class="edge">
<title>h2.n2.net&#45;&#45;h4.n2.net</title>
<path fill="none" stroke="black" d="M256.37,-133.3C256.42,-133.17 256.48,-133.03 256.54,-132.9"/>
</g>
<!-- h3.n2.net&#45;&#45;h4.n2.net -->
<g id="edge9" class="edge">
<title>h3.n2.net&#45;&#45;h4.n2.net</title>
<path fill="none" stroke="black" d="M251.66,-105.28C251.76,-105.38 251.85,-105.49 251.95,-105.59"/>
</g>
<!-- h4.n2.net&#45;&#45;h1.n2.net -->
<g id="edge10" class="edge">
<title>h4.n2.net&#45;&#45;h1.n2.net</title>
<path fill="none" stroke="black" d="M231.01,-123.17C223.85,-124.41 216.25,-125.73 209.09,-126.97"/>
</g>
<!-- h1.n3.net&#45;&#45;h1.n2.net -->
<g id="edge19" class="edge">
<title>h1.n3.net&#45;&#45;h1.n2.net</title>
<path fill="none" stroke="black" d="M133.53,-116.62C137.83,-118.2 142.26,-119.82 146.56,-121.39"/>
</g>
<!-- h2.n3.net -->
<g id="node10" class="node">
<title>h2.n3.net</title>
<ellipse fill="none" stroke="black" cx="96.63" cy="-32.38" rx="32.25" ry="32.25"/>
<text text-anchor="middle" x="96.63" y="-29.88" font-family="Times,serif" font-size="10.00">h2.n3.net</text>
</g>
<!-- h1.n3.net&#45;&#45;h2.n3.net -->
<g id="edge13" class="edge">
<title>h1.n3.net&#45;&#45;h2.n3.net</title>
<path fill="none" stroke="black" d="M100.17,-73.19C99.93,-70.43 99.69,-67.65 99.45,-64.89"/>
</g>
<!-- h3.n3.net -->
<g id="node11" class="node">
<title>h3.n3.net</title>
<ellipse fill="none" stroke="black" cx="47.5" cy="-38.15" rx="32.25" ry="32.25"/>
<text text-anchor="middle" x="47.5" y="-35.65" font-family="Times,serif" font-size="10.00">h3.n3.net</text>
</g>
<!-- h1.n3.net&#45;&#45;h3.n3.net -->
<g id="edge17" class="edge">
<title>h1.n3.net&#45;&#45;h3.n3.net</title>
<path fill="none" stroke="black" d="M82.31,-80.39C77.75,-74.86 72.92,-69 68.35,-63.46"/>
</g>
<!-- h2.n3.net&#45;&#45;h3.n3.net -->
<g id="edge14" class="edge">
<title>h2.n3.net&#45;&#45;h3.n3.net</title>
<path fill="none" stroke="black" d="M64.41,-36.16C64.26,-36.18 64.12,-36.2 63.97,-36.21"/>
</g>
<!-- h4.n3.net -->
<g id="node12" class="node">
<title>h4.n3.net</title>
<ellipse fill="none" stroke="black" cx="32.38" cy="-85.39" rx="32.25" ry="32.25"/>
<text text-anchor="middle" x="32.38" y="-82.89" font-family="Times,serif" font-size="10.00">h4.n3.net</text>
</g>
<!-- h2.n3.net&#45;&#45;h4.n3.net -->
<g id="edge18" class="edge">
<title>h2.n3.net&#45;&#45;h4.n3.net</title>
<path fill="none" stroke="black" d="M71.6,-53.02C66.95,-56.86 62.09,-60.87 57.44,-64.71"/>
</g>
<!-- h3.n3.net&#45;&#45;h4.n3.net -->
<g id="edge15" class="edge">
<title>h3.n3.net&#45;&#45;h4.n3.net</title>
<path fill="none" stroke="black" d="M37.58,-69.13C37.54,-69.27 37.49,-69.41 37.45,-69.55"/>
</g>
<!-- h4.n3.net&#45;&#45;h1.n3.net -->
<g id="edge16" class="edge">
<title>h4.n3.net&#45;&#45;h1.n3.net</title>
<path fill="none" stroke="black" d="M63.54,-94.25C66.2,-95 68.89,-95.77 71.56,-96.52"/>
</g>
</g>
</svg>
